<svg width="213" height="224" viewBox="0 0 213 224" fill="none" xmlns="http://www.w3.org/2000/svg">
<rect x="213" width="224" height="213" transform="rotate(90 213 0)" fill="#AA8B8B"/>
<path d="M37.5001 56.1979L58.6914 34.9424M58.6914 56.1979L37.5001 34.9424" stroke="#556563" stroke-width="20" stroke-linecap="round"/>
<path d="M163.434 45.3768C163.296 53.4429 169.705 60.1152 177.776 60.2549C185.847 60.3946 192.483 53.948 192.621 45.8819C192.76 37.8158 186.351 31.1435 178.279 31.0038C170.208 30.8641 163.573 37.3107 163.434 45.3768Z" stroke="#F1EBD5" stroke-width="8"/>
<path d="M97.0681 112.891C96.9294 120.958 103.339 127.63 111.41 127.77C119.481 127.909 126.116 121.463 126.255 113.397C126.394 105.33 119.984 98.6581 111.913 98.5184C103.842 98.3788 97.2069 104.825 97.0681 112.891Z" stroke="#F1EBD5" stroke-width="8"/>
<path d="M35.0203 181.063C34.8815 189.129 41.2911 195.802 49.3622 195.941C57.4333 196.081 64.0685 189.634 64.2073 181.568C64.346 173.502 57.9365 166.83 49.8653 166.69C41.7942 166.551 35.159 172.997 35.0203 181.063Z" stroke="#F1EBD5" stroke-width="8"/>
<rect width="190.167" height="7.0067" transform="matrix(-0.00621498 -0.999981 -0.99998 0.00625266 149.341 207.059)" fill="#57BAAC"/>
<rect width="190.167" height="7.0067" transform="matrix(-0.00621498 -0.999981 -0.99998 0.00625266 84.8389 207.462)" fill="#57BAAC"/>
<rect width="7.02791" height="178.465" transform="matrix(-0.00621498 -0.999981 -0.99998 0.00625266 200.072 80.0303)" fill="#57BAAC"/>
<rect width="7.02791" height="178.465" transform="matrix(-0.00621498 -0.999981 -0.99998 0.00625266 200.503 149.274)" fill="#57BAAC"/>
<rect width="7.017" height="216.457" transform="matrix(-0.716421 -0.697668 -0.6955 0.718526 189.1 39.8379)" fill="#F1EBD5"/>
</svg>
